<svg width="24" height="24" viewBox="0 0 24 24" fill="none" xmlns="http://www.w3.org/2000/svg">
<path d="M13 12C13 12.2761 12.7761 12.5 12.5 12.5C12.2239 12.5 12 12.2761 12 12C12 11.7239 12.2239 11.5 12.5 11.5C12.7761 11.5 13 11.7239 13 12Z" fill="#292929"/>
<path d="M13 18.5C13 18.7761 12.7761 19 12.5 19C12.2239 19 12 18.7761 12 18.5C12 18.2239 12.2239 18 12.5 18C12.7761 18 13 18.2239 13 18.5Z" fill="#292929"/>
<path d="M13 5.5C13 5.77614 12.7761 6 12.5 6C12.2239 6 12 5.77614 12 5.5C12 5.22386 12.2239 5 12.5 5C12.7761 5 13 5.22386 13 5.5Z" fill="#292929"/>
<path d="M13 12C13 12.2761 12.7761 12.5 12.5 12.5C12.2239 12.5 12 12.2761 12 12C12 11.7239 12.2239 11.5 12.5 11.5C12.7761 11.5 13 11.7239 13 12Z" stroke="#292929" stroke-width="2"/>
<path d="M13 18.5C13 18.7761 12.7761 19 12.5 19C12.2239 19 12 18.7761 12 18.5C12 18.2239 12.2239 18 12.5 18C12.7761 18 13 18.2239 13 18.5Z" stroke="#292929" stroke-width="2"/>
<path d="M13 5.5C13 5.77614 12.7761 6 12.5 6C12.2239 6 12 5.77614 12 5.5C12 5.22386 12.2239 5 12.5 5C12.7761 5 13 5.22386 13 5.5Z" stroke="#292929" stroke-width="2"/>
</svg>
