<svg width="25" height="24" viewBox="0 0 25 24" fill="none" xmlns="http://www.w3.org/2000/svg">
<path d="M8.72894 18.7407L5.67663 19.1768L6.11271 16.1245C6.17391 15.6961 6.3724 15.2991 6.67838 14.9931L14.9999 6.67152L17.4643 4.20711C17.8548 3.81658 18.488 3.81658 18.8785 4.20711L20.6462 5.97481C21.0367 6.36533 21.0367 6.99849 20.6462 7.38902L18.1818 9.85343L9.8603 18.175C9.55431 18.481 9.15733 18.6795 8.72894 18.7407Z" fill="#B3B3B3"/>
<path d="M18.1818 9.85343L9.8603 18.175C9.55431 18.481 9.15733 18.6795 8.72894 18.7407L5.67663 19.1768L6.11271 16.1245C6.17391 15.6961 6.3724 15.2991 6.67838 14.9931L14.9999 6.67152M18.1818 9.85343L20.6462 7.38902C21.0367 6.99849 21.0367 6.36533 20.6462 5.97481L18.8785 4.20711C18.488 3.81658 17.8548 3.81658 17.4643 4.20711L14.9999 6.67152M18.1818 9.85343L14.9999 6.67152" stroke="white" stroke-linecap="round" stroke-linejoin="round"/>
</svg>
