<svg width="21" height="20" viewBox="0 0 21 20" fill="none" xmlns="http://www.w3.org/2000/svg">
<path d="M13.1784 6.16079L7.73656 8.88172M7.73656 8.88172C7.32611 8.06243 6.47874 7.5 5.5 7.5C4.11929 7.5 3 8.61929 3 10C3 11.3807 4.11929 12.5 5.5 12.5C6.47874 12.5 7.32611 11.9376 7.73656 11.1183M7.73656 8.88172C7.90513 9.21821 8 9.59803 8 10C8 10.402 7.90513 10.7818 7.73656 11.1183M13.1784 13.8392L7.73656 11.1183M18 5C18 6.38071 16.8807 7.5 15.5 7.5C14.1193 7.5 13 6.38071 13 5C13 3.61929 14.1193 2.5 15.5 2.5C16.8807 2.5 18 3.61929 18 5ZM18 15C18 16.3807 16.8807 17.5 15.5 17.5C14.1193 17.5 13 16.3807 13 15C13 13.6193 14.1193 12.5 15.5 12.5C16.8807 12.5 18 13.6193 18 15Z" stroke="white" stroke-width="1.66667" stroke-linecap="round"/>
</svg>
