<svg width="24" height="24" viewBox="0 0 24 24" fill="none" xmlns="http://www.w3.org/2000/svg">
<path d="M12.0002 4.04236H6.03219C4.9335 4.04236 4.04285 4.93302 4.04285 6.0317V17.9677C4.04285 19.0664 4.93351 19.9571 6.03219 19.9571H17.9682C19.0669 19.9571 19.9576 19.0664 19.9576 17.9677V11.9997M18.3802 8.43303L19.4602 7.35306C20.2371 6.57618 20.2371 5.31661 19.4602 4.53972C18.6833 3.76283 17.4237 3.76284 16.6468 4.53973L15.5669 5.61968M18.3802 8.43303L12.3761 14.4372C12.0984 14.7149 11.7447 14.9042 11.3596 14.9813L8.43354 15.5665L9.01875 12.6404C9.09578 12.2553 9.28507 11.9016 9.56278 11.6239L15.5669 5.61968M18.3802 8.43303L15.5669 5.61968" stroke="#292929" stroke-width="2" stroke-linecap="round" stroke-linejoin="round"/>
</svg>
