<svg viewBox="0 0 43 60" fill="none" xmlns="http://www.w3.org/2000/svg">
    <path d="M42.2727 0H0V60H42.2727V0Z" fill="black"/>
    <path d="M21.4228 20.2974C22.5923 20.2974 24.0582 19.5068 24.9312 18.4526C25.7218 17.4973 26.2983 16.1631 26.2983 14.829C26.2983 14.6478 26.2818 14.4666 26.2489 14.3184C24.9477 14.3678 23.3829 15.1913 22.444 16.2949C21.7028 17.1349 21.0275 18.4526 21.0275 19.8032C21.0275 20.0009 21.0605 20.1986 21.0769 20.2644C21.1593 20.2809 21.2911 20.2974 21.4228 20.2974ZM17.3051 40.2275C18.9028 40.2275 19.611 39.1568 21.604 39.1568C23.63 39.1568 24.0747 40.1945 25.8536 40.1945C27.5995 40.1945 28.769 38.5803 29.8725 36.9991C31.1079 35.1873 31.6185 33.4084 31.6514 33.326C31.5361 33.2931 28.1925 31.926 28.1925 28.0882C28.1925 24.7611 30.8279 23.2622 30.9761 23.1469C29.2302 20.6433 26.5783 20.5774 25.8536 20.5774C23.8935 20.5774 22.2958 21.7633 21.2911 21.7633C20.204 21.7633 18.771 20.6433 17.0745 20.6433C13.8461 20.6433 10.5684 23.3116 10.5684 28.3518C10.5684 31.4813 11.7872 34.792 13.2861 36.9332C14.5708 38.745 15.6909 40.2275 17.3051 40.2275Z" fill="white"/>
</svg>
