<svg viewBox="0 0 43 60" fill="none" xmlns="http://www.w3.org/2000/svg">
    <path d="M42.5457 0H0.272949V60H42.5457V0Z" fill="#FEE500"/>
    <path d="M21.4998 19.9998C15.7015 19.9998 11 23.712 11 28.2939C11 31.237 12.9473 33.8211 15.8717 35.296L14.8823 38.989C14.8445 39.1024 14.8759 39.2224 14.9581 39.3042C15.0146 39.3612 15.0902 39.3926 15.1721 39.3926C15.2354 39.3926 15.2982 39.3674 15.355 39.3233L19.6091 36.4493C20.2269 36.5375 20.8572 36.5878 21.4998 36.5878C27.298 36.5878 32 32.8758 32 28.2939C32 23.712 27.298 19.9998 21.4998 19.9998Z" fill="black"/>
</svg>
