<svg viewBox="0 0 99 24" fill="none" xmlns="http://www.w3.org/2000/svg">
    <path d="M13.2952 18.7458C8.1747 18.7458 5.65542 15.7554 5.65542 11.2699V11.106C5.65542 6.6 8.8506 3.63012 13.1313 3.63012C16.941 3.63012 19.5831 5.39157 19.9313 9.26265H15.6096C15.4458 7.76747 14.6265 6.94819 13.1518 6.94819C11.2675 6.94819 10.0795 8.42289 10.0795 11.0855V11.2494C10.0795 13.8916 11.206 15.3867 13.2133 15.3867C14.688 15.3867 15.7325 14.6084 15.9373 12.9904H20.1157C19.8289 16.7795 17.0843 18.7458 13.2952 18.7458ZM21.3198 18.5V3.07711H24.9656V18.5H21.3198ZM26.9307 18.5V7.78795H30.597V18.5H26.9307ZM28.7536 6.76386C27.6066 6.76386 26.7464 5.96506 26.7464 4.87952C26.7464 3.79398 27.6066 2.9747 28.7536 2.9747C29.9006 2.9747 30.7813 3.79398 30.7813 4.87952C30.7813 5.96506 29.9006 6.76386 28.7536 6.76386ZM32.4592 18.5V7.78795H36.1255V9.42651C36.699 8.40241 37.8255 7.50121 39.4845 7.50121C40.8978 7.50121 41.8809 8.11566 42.393 9.28313C43.3146 8.03374 44.5845 7.50121 45.9363 7.50121C47.964 7.50121 49.4387 8.81205 49.4387 11.4952V18.5H45.7725V12.1096C45.7725 11.0241 45.2399 10.4916 44.4002 10.4916C43.4171 10.4916 42.7616 11.1265 42.7616 12.294V18.5H39.1363V12.1096C39.1363 11.0241 38.6038 10.4916 37.764 10.4916C36.7809 10.4916 36.1255 11.1265 36.1255 12.294V18.5H32.4592ZM51.2138 18.5V7.78795H54.88V18.5H51.2138ZM53.0367 6.76386C51.8897 6.76386 51.0294 5.96506 51.0294 4.87952C51.0294 3.79398 51.8897 2.9747 53.0367 2.9747C54.1837 2.9747 55.0644 3.79398 55.0644 4.87952C55.0644 5.96506 54.1837 6.76386 53.0367 6.76386ZM56.7423 18.5V7.78795H60.4086V9.50843C60.9821 8.40241 62.1495 7.50121 63.9315 7.50121C66.0001 7.50121 67.4339 8.79157 67.4339 11.5361V18.5H63.7676V12.2735C63.7676 11.0651 63.2965 10.4711 62.2315 10.4711C61.1459 10.4711 60.4086 11.1265 60.4086 12.4988V18.5H56.7423ZM74.1319 22.4735C70.4862 22.4735 68.8066 20.9373 68.5199 18.5H72.1657C72.3295 19.2783 72.8006 19.8928 74.1319 19.8928C75.75 19.8928 76.4054 18.9711 76.4054 17.6398V16.0012C75.8524 17.0253 74.685 17.9675 73.0874 17.9675C70.5886 17.9675 68.5404 16.1241 68.5404 12.8265V12.6627C68.5404 9.50843 70.5681 7.50121 73.0874 7.50121C74.7874 7.50121 75.791 8.21807 76.4054 9.30361V7.78795H80.0717V17.5988C80.0717 20.794 77.9621 22.4735 74.1319 22.4735ZM74.3777 15.2639C75.6886 15.2639 76.5078 14.3217 76.5078 12.806V12.6627C76.5078 11.188 75.75 10.2458 74.3982 10.2458C73.0259 10.2458 72.2886 11.2084 72.2886 12.6831V12.847C72.2886 14.3217 73.0669 15.2639 74.3777 15.2639ZM87.1303 16.0217C88.5026 16.0217 89.2399 14.9976 89.2399 13.2157V13.0518C89.2399 11.2494 88.5231 10.2458 87.1303 10.2458C85.758 10.2458 85.0002 11.2084 85.0002 13.0108V13.1747C85.0002 15.0181 85.717 16.0217 87.1303 16.0217ZM87.1098 18.7458C83.8122 18.7458 81.252 16.7386 81.252 13.2771V13.1133C81.252 9.67229 83.8122 7.50121 87.1303 7.50121C90.4279 7.50121 92.9676 9.61084 92.9676 13.0108V13.1747C92.9676 16.6566 90.4074 18.7458 87.1098 18.7458Z" fill="#FF5C75"/>
</svg>
