<svg viewBox="0 0 28 28" fill="none" xmlns="http://www.w3.org/2000/svg">
    <path d="M19.7979 22.7555C19.5133 20.4508 17.5483 18.6667 15.1667 18.6667H12.8333C10.4517 18.6667 8.48672 20.4508 8.20209 22.7555M19.7979 22.7555C22.6317 20.8751 24.5 17.6557 24.5 14C24.5 8.20101 19.799 3.5 14 3.5C8.20101 3.5 3.5 8.20101 3.5 14C3.5 17.6557 5.36826 20.8751 8.20209 22.7555M19.7979 22.7555C18.1365 23.8579 16.1433 24.5 14 24.5C11.8568 24.5 9.86348 23.8579 8.20209 22.7555M17.5 11.6667C17.5 13.5997 15.933 15.1667 14 15.1667C12.067 15.1667 10.5 13.5997 10.5 11.6667C10.5 9.73367 12.067 8.16667 14 8.16667C15.933 8.16667 17.5 9.73367 17.5 11.6667Z" stroke="#292929" stroke-width="2.33333" stroke-linecap="round" stroke-linejoin="round"/>
</svg>
